<svg width="512" height="512" viewBox="0 0 512 512" fill="none" xmlns="http://www.w3.org/2000/svg">
  <defs>
    <linearGradient id="bg" x1="48" y1="48" x2="464" y2="464" gradientUnits="userSpaceOnUse">
      <stop offset="0" stop-color="#0F172A"/>
      <stop offset="1" stop-color="#0B3B2E"/>
    </linearGradient>
    <linearGradient id="accent" x1="128" y1="96" x2="448" y2="416" gradientUnits="userSpaceOnUse">
      <stop offset="0" stop-color="#22D3EE"/>
      <stop offset="1" stop-color="#22C55E"/>
    </linearGradient>
    <filter id="glow" x="-20%" y="-20%" width="140%" height="140%" color-interpolation-filters="sRGB">
      <feGaussianBlur stdDeviation="8" result="blur"/>
      <feMerge>
        <feMergeNode in="blur"/>
        <feMergeNode in="SourceGraphic"/>
      </feMerge>
    </filter>
  </defs>
  <rect x="48" y="48" width="416" height="416" rx="104" fill="url(#bg)"/>
  <rect x="96" y="96" width="320" height="320" rx="80" fill="#0B1224" opacity="0.55"/>
  <path
    d="M140 332L206 266L256 306L320 226L372 252"
    stroke="url(#accent)"
    stroke-width="26"
    stroke-linecap="round"
    stroke-linejoin="round"
    filter="url(#glow)"
  />
  <circle cx="140" cy="332" r="16" fill="#22D3EE"/>
  <circle cx="206" cy="266" r="16" fill="#5EEAD4"/>
  <circle cx="256" cy="306" r="16" fill="#34D399"/>
  <circle cx="320" cy="226" r="16" fill="#22C55E"/>
  <circle cx="372" cy="252" r="16" fill="#16A34A"/>
  <path
    d="M182 180C198 154 234 142 266 148C303 156 318 182 300 206C286 224 250 232 224 226"
    stroke="#F8FAFC"
    stroke-width="20"
    stroke-linecap="round"
    stroke-linejoin="round"
  />
</svg>
